<?xml version="1.0" encoding="UTF-8"?>
<svg version="1.1" xmlns="http://www.w3.org/2000/svg" width="160" height="160">
<path d="M0 0 C26.4 0 52.8 0 80 0 C80 3.3 80 6.6 80 10 C83.3 10 86.6 10 90 10 C90 23.2 90 36.4 90 50 C86.7 50 83.4 50 80 50 C80 69.8 80 89.6 80 110 C76.7 110 73.4 110 70 110 C70 116.6 70 123.2 70 130 C76.6 130 83.2 130 90 130 C90 133.3 90 136.6 90 140 C76.8 140 63.6 140 50 140 C50 133.4 50 126.8 50 120 C40.1 120 30.2 120 20 120 C20 123.3 20 126.6 20 130 C26.6 130 33.2 130 40 130 C40 133.3 40 136.6 40 140 C26.8 140 13.6 140 0 140 C0 133.4 0 126.8 0 120 C-3.3 120 -6.6 120 -10 120 C-10 103.5 -10 87 -10 70 C-6.7 70 -3.4 70 0 70 C0 66.7 0 63.4 0 60 C9.9 60 19.8 60 30 60 C30 56.7 30 53.4 30 50 C20.1 50 10.2 50 0 50 C0 46.7 0 43.4 0 40 C-3.3 40 -6.6 40 -10 40 C-10 30.1 -10 20.2 -10 10 C-6.7 10 -3.4 10 0 10 C0 6.7 0 3.4 0 0 Z " fill="#FAFBE1" transform="translate(40,20)"/>
<path d="M0 0 C6.6 0 13.2 0 20 0 C20 3.3 20 6.6 20 10 C26.6 10 33.2 10 40 10 C40 13.3 40 16.6 40 20 C26.8 20 13.6 20 0 20 C0 13.4 0 6.8 0 0 Z " fill="#D2CDB0" transform="translate(90,140)"/>
<path d="M0 0 C13.2 0 26.4 0 40 0 C40 3.3 40 6.6 40 10 C26.8 10 13.6 10 0 10 C0 6.7 0 3.4 0 0 Z " fill="#D2CDB0" transform="translate(60,110)"/>
<path d="M0 0 C6.6 0 13.2 0 20 0 C20 6.6 20 13.2 20 20 C13.4 20 6.8 20 0 20 C0 13.4 0 6.8 0 0 Z " fill="#D2CDB0" transform="translate(110,40)"/>
<path d="M0 0 C6.6 0 13.2 0 20 0 C20 6.6 20 13.2 20 20 C13.4 20 6.8 20 0 20 C0 13.4 0 6.8 0 0 Z " fill="#D2CDB0" transform="translate(70,40)"/>
<path d="M0 0 C9.9 0 19.8 0 30 0 C30 3.3 30 6.6 30 10 C20.1 10 10.2 10 0 10 C0 6.7 0 3.4 0 0 Z " fill="#D2CDB0" transform="translate(60,90)"/>
<path d="M0 0 C3.3 0 6.6 0 10 0 C10 3.3 10 6.6 10 10 C6.7 10 3.4 10 0 10 C0 6.7 0 3.4 0 0 Z " fill="#D2CDB0" transform="translate(110,110)"/>
<path d="M0 0 C3.3 0 6.6 0 10 0 C10 3.3 10 6.6 10 10 C6.7 10 3.4 10 0 10 C0 6.7 0 3.4 0 0 Z " fill="#D2CDB0" transform="translate(110,90)"/>
<path d="M0 0 C3.3 0 6.6 0 10 0 C10 3.3 10 6.6 10 10 C6.7 10 3.4 10 0 10 C0 6.7 0 3.4 0 0 Z " fill="#D2CDB0" transform="translate(70,70)"/>
</svg>
